<!-- Kam Mek -->
<svg width="225.394" height="225.394" viewBox="0 0 59.635 59.635" xmlns="http://www.w3.org/2000/svg">
    <!-- Brows -->
    <path style="stroke-width:.264583" d="M46.302 6.615h6.615v6.614h-6.615zM6.615 6.615h6.614v6.614H6.615ZM13.23 0h6.614v6.615h-6.615zM39.688 0h6.614v6.615h-6.614Z"/>
    <!-- /Brows -->

    <!-- Eyes -->
    <path style="stroke-width:.264583" d="M13.23 26.458h6.614v6.615h-6.615z"/>
	<path style="stroke-width:.264583" d="M13.23 19.844h6.614v6.614h-6.615zM39.688 19.844h6.614v6.614h-6.614Z"/>
	<path style="stroke-width:.264583" d="M39.688 26.458h6.614v6.615h-6.614Z"/>
    <!-- /Eyes -->

    <!-- Mouth -->
    <path style="stroke-width:.264583" d="M13.23 39.687h6.614v6.615h-6.615zM39.688 39.687h6.614v6.615h-6.614ZM26.458 39.687h6.615v6.615h-6.615zM13.23 46.302h6.614v6.615h-6.615zM26.458 46.302h6.615v6.615h-6.615zM39.688 46.302h6.614v6.615h-6.614Z"/>
    <!-- /Mouth -->
</svg>
    