<!-- Ume Oxima -->
<svg width="225.394" height="225.394" viewBox="0 0 59.635 59.635" xmlns="http://www.w3.org/2000/svg">
    <!-- Brows -->
    <path style="stroke-width:.264583" d="M13.23 6.615h6.614v6.614h-6.615zM39.688 6.615h6.614v6.614h-6.614ZM6.615 6.615h6.614v6.614H6.615ZM0 6.615h6.615v6.614H0ZM19.844 6.615h6.614v6.614h-6.614z"/>
	<path style="stroke-width:.264583" d="M26.458 6.615h6.615v6.614h-6.615zM33.073 6.615h6.614v6.614h-6.614zM46.302 6.615h6.615v6.614h-6.615zM52.917 6.615h6.614v6.614h-6.614z"/>
    <!-- /Brows -->

    <!-- Eyes -->
    <path style="stroke-width:.264583" d="M13.23 19.844h6.614v6.614h-6.615zM39.688 19.844h6.614v6.614h-6.614Z"/>
    <!-- /Eyes -->

    <!-- Mouth -->
    <path style="stroke-width:.264583" d="M26.458 39.687h6.615v6.615h-6.615z"/>
	<path style="stroke-width:.264583" d="M19.844 39.687h6.614v6.615h-6.614zM33.073 39.687h6.614v6.615h-6.614z"/>
    <!-- /Mouth -->
</svg>
    