<svg width="225.394" height="225.394" viewBox="0 0 59.635 59.635" xmlns="http://www.w3.org/2000/svg"><path style="stroke-width:.264583" d="M26.458 39.687h6.615v6.615h-6.615z"/><path style="stroke-width:.264583" d="M19.844 39.687h6.614v6.615h-6.614zM33.073 39.687h6.614v6.615h-6.614zM0 39.687h6.615v6.615H0ZM6.615 46.302h6.614v6.615H6.615ZM13.23 46.302h6.614v6.615h-6.615zM19.844 46.302h6.614v6.615h-6.614zM26.458 52.917h6.615v6.614h-6.615zM33.073 46.302h6.614v6.615h-6.614zM39.688 46.302h6.614v6.615h-6.614ZM46.302 46.302h6.615v6.615h-6.615zM52.917 39.687h6.614v6.615h-6.614z"/></svg>